# xmcd
#
# Track frame offsets:
#  150
#  22254
#  43292
#  61107
#  82588
#  102720
#  133961
#  156907
#  166902
#  191352
#  206958
#  231264
#  248601
#  266166
#  279815
#
# Disc length: 4018 seconds
#
# Revision: 0
# Processed by: cddbd v1.5.1PL0 Copyright (c) Steve Scherf et al.
# Submitted via: Collectorz.com Music Collector 6.9
#
DISCID=d50fb00f
DTITLE=terry clarke - The Sound Of The Moon
DYEAR=2001
DGENRE=
TTITLE0=Walkin' Home
TTITLE1=April Blue
TTITLE2=Sandboy
TTITLE3=This Is Morning Town
TTITLE4=The Hidden World (For June Juanico)
TTITLE5=Mother Of Pearl
TTITLE6=Down Around Belle River
TTITLE7=Oleander
TTITLE8=The Messenger (For Walter Hyatt)
TTITLE9=Come Autumn
TTITLE10=Misteria (For Amy Laura Clarke)
TTITLE11=The Sound Of The Moon
TTITLE12=The Wind Is Weeping
TTITLE13=If I Ever Get To Heaven
TTITLE14=Stars and Trains
EXTD=
EXTT0=
EXTT1=
EXTT2=
EXTT3=
EXTT4=
EXTT5=
EXTT6=
EXTT7=
EXTT8=
EXTT9=
EXTT10=
EXTT11=
EXTT12=
EXTT13=
EXTT14=
PLAYORDER=
